<svg xmlns="http://www.w3.org/2000/svg" width="1400" height="760" viewBox="0 0 1400 760">
<defs><marker id="a" viewBox="0 0 10 10" refX="9" refY="5" markerWidth="8" markerHeight="8" orient="auto"><path d="M0 0L10 5L0 10z" fill="#111"/></marker><style>.b{fill:#fff;stroke:#111;stroke-width:2.2;rx:16}.t{font-family:'Times New Roman',serif;font-size:30px;font-weight:bold;text-anchor:middle}.x{font-family:'Times New Roman',serif;font-size:26px;text-anchor:middle}.s{font-family:'Times New Roman',serif;font-size:22px;text-anchor:middle}.l{stroke:#111;stroke-width:2.4;fill:none;marker-end:url(#a)}</style></defs>
<rect width="1400" height="760" fill="#fff"/><text x="700" y="55" class="t">Arsitektur Native YOLO26 dan AF2–YOLO26</text>
<text x="110" y="200" class="x">Native</text><rect x="210" y="145" width="260" height="110" class="b"/><text x="340" y="195" class="x">RGB image</text><rect x="585" y="145" width="300" height="110" class="b"/><text x="735" y="187" class="x">YOLO26n</text><text x="735" y="222" class="s">P3–P5 detector</text><rect x="1010" y="145" width="260" height="110" class="b"/><text x="1140" y="195" class="x">Prediction</text><path d="M470 200L585 200" class="l"/><path d="M885 200L1010 200" class="l"/>
<text x="110" y="500" class="x">Proposed</text><rect x="210" y="445" width="260" height="110" class="b"/><text x="340" y="495" class="x">RGB image</text><rect x="535" y="430" width="300" height="140" class="b"/><text x="685" y="480" class="x">AF2</text><text x="685" y="515" class="s">frequency-angular</text><text x="685" y="545" class="s">input preprocessing</text><rect x="900" y="445" width="300" height="110" class="b"/><text x="1050" y="487" class="x">YOLO26n</text><text x="1050" y="522" class="s">same detector</text><rect x="1250" y="445" width="120" height="110" class="b"/><text x="1310" y="510" class="s">Output</text><path d="M470 500L535 500" class="l"/><path d="M835 500L900 500" class="l"/><path d="M1200 500L1250 500" class="l"/>
<path d="M735 255L735 405" stroke="#555" stroke-width="2" stroke-dasharray="9 8"/><text x="820" y="335" class="s">arsitektur internal detector dipertahankan</text>
<text x="700" y="675" class="s">Perbedaan treatment berada pada ruang input; AF2 bukan modul backbone, neck, atau detection head.</text>
</svg>